<svg width="66" height="66" viewBox="0 0 66 66" fill="none" xmlns="http://www.w3.org/2000/svg">
<path d="M20.1836 26.837C19.2857 25.8574 17.7347 25.7758 16.7551 26.6737C15.7755 27.5717 15.6939 29.1227 16.5918 30.1023L28.9183 43.4901C29.4081 43.9799 29.9796 44.3064 30.6326 44.3064C30.6326 44.3064 30.6326 44.3064 30.7143 44.3064C31.3673 44.3064 32.0204 44.0615 32.4285 43.5717L63.6122 12.4697C64.5918 11.4901 64.5918 9.93904 63.6122 9.04108C62.6326 8.14312 61.0816 8.06149 60.1837 9.04108L30.7959 38.3472L20.1836 26.837Z" fill="url(#paint0_linear)"/>
<path d="M63.0408 30.1839C61.6531 30.1839 60.5918 31.2451 60.5918 32.6329C60.5918 47.8165 48.1837 60.2247 33 60.2247C17.8163 60.2247 5.40815 47.8165 5.40815 32.6329C5.40815 17.4492 17.8163 5.04103 33 5.04103C34.3877 5.04103 35.449 3.9798 35.449 2.59205C35.449 1.20429 34.3877 0.143066 33 0.143066C15.1224 0.143066 0.510193 14.7553 0.510193 32.6329C0.510193 50.5104 15.1224 65.1227 33 65.1227C50.8775 65.1227 65.4898 50.5104 65.4898 32.6329C65.4898 31.2451 64.4286 30.1839 63.0408 30.1839Z" fill="url(#paint1_linear)"/>
<defs>
<linearGradient id="paint0_linear" x1="40.1566" y1="-4.10177" x2="40.1566" y2="69.1036" gradientUnits="userSpaceOnUse">
<stop stop-color="#00EFD1"/>
<stop offset="1" stop-color="#00ACEA"/>
</linearGradient>
<linearGradient id="paint1_linear" x1="33" y1="-4.10183" x2="33" y2="69.1036" gradientUnits="userSpaceOnUse">
<stop stop-color="#00EFD1"/>
<stop offset="1" stop-color="#00ACEA"/>
</linearGradient>
</defs>
</svg>
