<svg width="80" height="80" viewBox="0 0 80 80" fill="none" xmlns="http://www.w3.org/2000/svg">
<path d="M27.1836 35.837C26.2857 34.8574 24.7347 34.7758 23.7551 35.6737C22.7755 36.5717 22.6939 38.1227 23.5918 39.1023L35.9183 52.4901C36.4081 52.9799 36.9796 53.3064 37.6326 53.3064C37.6326 53.3064 37.6326 53.3064 37.7143 53.3064C38.3673 53.3064 39.0204 53.0615 39.4285 52.5717L70.6122 21.4697C71.5918 20.4901 71.5918 18.939 70.6122 18.0411C69.6326 17.1431 68.0816 17.0615 67.1837 18.0411L37.7959 47.3472L27.1836 35.837Z" fill="url(#paint0_linear)"/>
<path d="M70.0408 39.1839C68.6531 39.1839 67.5918 40.2451 67.5918 41.6329C67.5918 56.8165 55.1837 69.2247 40 69.2247C24.8163 69.2247 12.4082 56.8165 12.4082 41.6329C12.4082 26.4492 24.8163 14.041 40 14.041C41.3877 14.041 42.449 12.9798 42.449 11.592C42.449 10.2043 41.3877 9.14307 40 9.14307C22.1224 9.14307 7.51019 23.7553 7.51019 41.6329C7.51019 59.5104 22.1224 74.1227 40 74.1227C57.8775 74.1227 72.4898 59.5104 72.4898 41.6329C72.4898 40.2451 71.4286 39.1839 70.0408 39.1839Z" fill="url(#paint1_linear)"/>
<defs>
<linearGradient id="paint0_linear" x1="47.1566" y1="4.89823" x2="47.1566" y2="78.1036" gradientUnits="userSpaceOnUse">
<stop stop-color="#00EFD1"/>
<stop offset="1" stop-color="#00ACEA"/>
</linearGradient>
<linearGradient id="paint1_linear" x1="40" y1="4.89817" x2="40" y2="78.1036" gradientUnits="userSpaceOnUse">
<stop stop-color="#00EFD1"/>
<stop offset="1" stop-color="#00ACEA"/>
</linearGradient>
</defs>
</svg>
