<svg width="80" height="80" viewBox="0 0 80 80" fill="none" xmlns="http://www.w3.org/2000/svg">
<path d="M72.5294 37.4666H61C60.0941 37.4666 59.1882 37.9657 58.7765 38.7977L49.0588 58.0984L33.6588 14.6718C33.3294 13.7566 32.5059 13.0911 31.5176 13.0079C30.5294 12.9247 29.6235 13.5071 29.1294 14.339L17.5176 37.4666H7.47059C6.07059 37.4666 5 38.5481 5 39.9624C5 41.3766 6.07059 42.4581 7.47059 42.4581H19C19.9059 42.4581 20.8118 41.959 21.2235 41.1271L30.9412 21.8263L46.3412 65.3361C46.6706 66.2513 47.4941 66.9168 48.4824 67C48.5647 67 48.5647 67 48.6471 67C49.5529 67 50.4588 66.5008 50.8706 65.6689L62.4824 42.4581H72.5294C73.9294 42.4581 75 41.3766 75 39.9624C75 38.5481 73.9294 37.4666 72.5294 37.4666Z" fill="url(#paint0_linear)"/>
<defs>
<linearGradient id="paint0_linear" x1="40" y1="13.0072" x2="40" y2="66.9176" gradientUnits="userSpaceOnUse">
<stop stop-color="#00EFD1"/>
<stop offset="1" stop-color="#00ACEA"/>
</linearGradient>
</defs>
</svg>
