<svg width="80" height="80" viewBox="0 0 80 80" fill="none" xmlns="http://www.w3.org/2000/svg">
<path d="M61.8317 21.5183L40.7302 10.2738C40.073 9.90873 39.2698 9.90873 38.6127 10.2738L18.1683 21.5183C17.4381 21.8833 17 22.6135 17 23.4167V39.3341C17 51.8198 24.4476 63.2103 35.9111 68.2484L38.7587 69.4897C39.0508 69.6357 39.3429 69.6357 39.6349 69.6357C39.927 69.6357 40.219 69.5627 40.5111 69.4897L43.7238 68.1024C55.4063 63.1373 63 51.7468 63 39.0421V23.4897C63 22.6135 62.5619 21.8833 61.8317 21.5183ZM58.619 39.0421C58.619 49.9944 52.1206 59.7786 41.9714 64.0135L39.6349 65.0357L37.6635 64.1595C27.8063 59.8516 21.381 50.0674 21.381 39.2611V24.6579L39.7079 14.5817L58.619 24.6579V39.0421Z" fill="url(#paint0_linear)"/>
<path d="M32.8444 37.9465C32.0413 36.9972 30.654 36.9242 29.7778 37.7274C28.8286 38.5306 28.7555 39.9179 29.5587 40.7941L35.1079 47.2925C35.546 47.8036 36.1301 48.0957 36.7873 48.0957C37.2984 48.0957 37.7365 47.9496 38.1746 47.5846L51.0984 37.0703C52.0476 36.3401 52.1936 34.9528 51.3905 34.0036C50.6603 33.0544 49.273 32.9084 48.3238 33.7115L37.0063 42.8385L32.8444 37.9465Z" fill="url(#paint1_linear)"/>
<defs>
<linearGradient id="paint0_linear" x1="40" y1="9.17857" x2="40" y2="68.5341" gradientUnits="userSpaceOnUse">
<stop stop-color="#00EFD1"/>
<stop offset="1" stop-color="#00ACEA"/>
</linearGradient>
<linearGradient id="paint1_linear" x1="40.4592" y1="9.17818" x2="40.4592" y2="68.5338" gradientUnits="userSpaceOnUse">
<stop stop-color="#00EFD1"/>
<stop offset="1" stop-color="#00ACEA"/>
</linearGradient>
</defs>
</svg>
