<svg width="80" height="80" viewBox="0 0 80 80" fill="none" xmlns="http://www.w3.org/2000/svg">
<path d="M40.5 14C26.438 14 15 25.438 15 39.5C15 53.562 26.438 65 40.5 65C54.562 65 66 53.562 66 39.5C66 25.438 54.562 14 40.5 14ZM40.5 18.0369C52.3417 18.0369 61.9631 27.6583 61.9631 39.5C61.9631 44.277 60.4156 48.6504 57.7916 52.2164C53.4182 47.4393 48.1029 44.6135 42.3166 44.0752C47.2282 43.2005 50.996 38.8945 50.996 33.6464C50.996 27.7929 46.2863 23.0831 40.5 23.0831C34.7137 23.0831 30.004 27.7929 30.004 33.6464C30.004 38.8272 33.7718 43.2005 38.6834 44.0752C32.8971 44.5462 27.5818 47.372 23.2084 52.2164C20.5844 48.6504 19.0369 44.277 19.0369 39.5C19.0369 27.6583 28.6583 18.0369 40.5 18.0369ZM34.0409 33.7137C34.0409 30.1478 36.934 27.1873 40.5 27.1873C44.066 27.1873 46.9591 30.1478 46.9591 33.7137C46.9591 37.2797 44.066 40.2401 40.5 40.2401C36.934 40.2401 34.0409 37.2797 34.0409 33.7137ZM25.967 55.2441C30.004 50.6016 35.1174 48.0449 40.5 48.0449C45.8826 48.0449 50.996 50.6016 55.033 55.2441C51.2652 58.81 46.0844 60.9631 40.5 60.9631C34.9156 60.9631 29.7348 58.81 25.967 55.2441Z" fill="url(#paint0_linear)"/>
<defs>
<linearGradient id="paint0_linear" x1="40.5" y1="13.9999" x2="40.5" y2="65.0001" gradientUnits="userSpaceOnUse">
<stop stop-color="#00EFD1"/>
<stop offset="1" stop-color="#00ACEA"/>
</linearGradient>
</defs>
</svg>
